<svg width="37" height="9" viewBox="0 0 37 9" fill="none" xmlns="http://www.w3.org/2000/svg">
<path d="M34.8766 2.12801H36.9406L34.2526 8.06801H32.2126L33.0646 6.55601L30.9886 2.12801H33.0526L34.0006 4.58801L34.8766 2.12801Z" fill="white"/>
<path d="M28.6214 0.664001H30.6254V6.616H28.6214V0.664001Z" fill="white"/>
<path d="M24.8015 3.48401C24.8015 4.19201 28.2575 3.32801 28.2575 5.20001C28.2575 6.18401 27.2855 6.61601 25.6895 6.61601C23.8655 6.61601 22.7855 6.29201 22.7855 5.15201H24.7055C24.7055 5.50001 25.1495 5.64401 25.6055 5.64401C25.9895 5.64401 26.4095 5.52401 26.4095 5.29601C26.4095 4.66001 22.7855 5.48801 22.7855 3.60401C22.7855 2.44001 23.9375 2.12801 25.6055 2.12801C27.4055 2.12801 28.2575 2.56001 28.2575 3.62801H26.2415C26.2415 3.20801 25.9535 3.11201 25.5215 3.11201C25.1495 3.11201 24.8015 3.23201 24.8015 3.48401Z" fill="white"/>
<path d="M20.4164 2.12801H22.4204V6.61601H20.4164V5.95601C20.2004 6.24401 19.7444 6.60401 18.8684 6.60401C17.6204 6.60401 16.9964 6.01601 16.9964 4.82801V2.12801H19.0004V4.42001C19.0004 4.90001 19.0964 5.26001 19.6964 5.26001C20.2844 5.26001 20.4164 4.91201 20.4164 4.42001V2.12801Z" fill="white"/>
<path d="M13.8535 5.35601C14.3695 5.35601 14.6695 5.11601 14.7895 4.75601H16.6375C16.4215 6.17201 15.1255 6.61601 13.8535 6.61601C12.4495 6.61601 10.9495 6.08801 10.9495 4.37201C10.9495 2.63201 12.4495 2.12801 13.8535 2.12801C15.1255 2.12801 16.4215 2.56001 16.6375 3.97601H14.7895C14.6695 3.61601 14.3695 3.37601 13.8535 3.37601C13.1575 3.37601 12.8455 3.79601 12.8455 4.37201C12.8455 4.94801 13.1575 5.35601 13.8535 5.35601Z" fill="white"/>
<path d="M7.68975 2.104C9.08175 2.104 10.5938 2.62 10.5938 4.36C10.5938 6.1 9.08175 6.616 7.68975 6.616C6.28575 6.616 4.77375 6.1 4.77375 4.36C4.77375 2.62 6.28575 2.104 7.68975 2.104ZM7.68975 5.356C8.37375 5.356 8.68575 4.948 8.68575 4.36C8.68575 3.784 8.37375 3.364 7.68975 3.364C6.99375 3.364 6.66975 3.784 6.66975 4.36C6.66975 4.948 6.99375 5.356 7.68975 5.356Z" fill="white"/>
<path d="M5.604 2.128H2.448V2.884H4.476V4.372H2.448V6.616H0.18V0.664001H5.604V2.128Z" fill="white"/>
</svg>
