<svg width="410" height="410" viewBox="0 0 410 410" fill="none" xmlns="http://www.w3.org/2000/svg">
<g clip-path="url(#clip0_3507_2)">
<path d="M307.2 0H102.4C46.085 0 0 46.065 0 102.4V307.2C0 363.515 46.085 409.6 102.4 409.6H307.2C363.515 409.6 409.6 363.515 409.6 307.2V102.4C409.6 46.065 363.515 0 307.2 0ZM204.8 290.13C157.665 290.13 119.465 251.914 119.465 204.8C119.465 157.665 157.665 119.465 204.8 119.465C251.914 119.465 290.135 157.665 290.135 204.8C290.135 251.914 251.914 290.13 204.8 290.13ZM315.735 119.465C301.583 119.465 290.135 108.001 290.135 93.865C290.135 79.729 301.583 68.265 315.735 68.265C329.887 68.265 341.335 79.729 341.335 93.865C341.335 108.001 329.887 119.465 315.735 119.465Z" fill="white"/>
</g>
<defs>
<clipPath id="clip0_3507_2">
<rect width="409.6" height="409.6" fill="white"/>
</clipPath>
</defs>
</svg>
